<svg id="Layer_1" data-name="Layer 1" xmlns="http://www.w3.org/2000/svg" viewBox="0 0 236.6 235.7"><defs><style>.cls-1{fill:#fff;}.cls-2{fill:#fed10a;}.cls-3{fill:#24bbb1;}.cls-4{fill:#ef5098;}.cls-5{fill:#17a8e0;}.cls-6{fill:#93c83e;}.cls-7{fill:#0779a1;}</style></defs><title>3Artboard 1</title><path class="cls-1" d="M236.6,123.5a46.54,46.54,0,0,0-30.8-43.9A66.84,66.84,0,0,0,86,27.7,35.5,35.5,0,0,0,28.8,55.8,36.77,36.77,0,0,0,31,68.2a46.75,46.75,0,0,0-.1,88,66.66,66.66,0,0,0,119.6,51.6,35,35,0,0,0,21.7,7.6,35.51,35.51,0,0,0,35.5-35.5,36.77,36.77,0,0,0-2.2-12.4,47.08,47.08,0,0,0,31.1-44"/><path class="cls-2" d="M93,101.5l51.8,23.6L197,79.3a54.71,54.71,0,0,0,1.1-11.5,58.35,58.35,0,0,0-106.5-33L82.9,79.9Z"/><path class="cls-3" d="M39.4,156.3A56.62,56.62,0,0,0,38.3,168a58.58,58.58,0,0,0,107,32.9l8.6-44.9-11.5-22-52-23.7Z"/><path class="cls-4" d="M39.1,66.7l35.5,8.4,7.8-40.3A28,28,0,0,0,39.1,66.7"/><path class="cls-5" d="M36,75.2a39.1,39.1,0,0,0-1.7,73.7l49.8-45L75,84.4Z"/><path class="cls-6" d="M154.3,200.9A28,28,0,0,0,197.5,169l-35.4-8.3Z"/><path class="cls-7" d="M161.5,151.4l39,9.1a39.1,39.1,0,0,0,1.7-73.7l-51,44.7Z"/></svg>