<svg id="Capa_1" data-name="Capa 1" xmlns="http://www.w3.org/2000/svg" viewBox="0 0 800.38 800.38"><defs><style>.cls-1{fill:#f2b632;}</style></defs><title>1Artboard 1</title><polygon class="cls-1" points="430.34 410.77 400.19 380.62 370.04 410.77 379.62 420.35 379.62 449.15 420.76 449.15 420.76 420.35 430.34 410.77"/><path class="cls-1" d="M533.85,219.33a136,136,0,1,0-136,136A136,136,0,0,0,533.85,219.33Z"/><path class="cls-1" d="M718.69,685.44l1-.28c.51-.14,1-.28,1.51-.44l1.06-.36c.49-.17,1-.33,1.47-.51l1.09-.43c.47-.18.94-.36,1.4-.55l1.11-.51c.44-.2.89-.4,1.33-.61l1.09-.56c.44-.22.88-.44,1.31-.68s.68-.39,1-.58l1.33-.78.93-.6c.46-.29.92-.59,1.37-.9l.84-.6c.47-.34.93-.66,1.39-1l.8-.62c.45-.36.9-.72,1.34-1.09l.32-.26.5-.45c.4-.35.8-.7,1.18-1.06l.93-.89c.32-.31.64-.62.94-.94s.7-.72,1-1.09l.72-.79c.39-.43.76-.86,1.13-1.3l.55-.66q.59-.73,1.15-1.47l.44-.59c.38-.52.76-1,1.12-1.58l.4-.6c.35-.53.7-1.07,1-1.6l.43-.72q.45-.75.88-1.52c.17-.31.34-.63.5-1s.47-.89.69-1.34.4-.82.58-1.25.34-.73.5-1.09.43-1,.64-1.55c.11-.28.23-.56.33-.84.23-.6.44-1.2.65-1.81l.22-.65c.21-.65.41-1.31.6-2,.05-.18.1-.36.15-.54.18-.67.35-1.35.51-2,0-.19.09-.37.13-.56.15-.65.28-1.31.4-2l.13-.7c.1-.61.19-1.22.28-1.84,0-.3.08-.61.12-.91.06-.55.12-1.09.17-1.65,0-.39.06-.78.09-1.18s.06-.95.08-1.42,0-1,0-1.43c0-.26,0-.52,0-.77s0-.32,0-.48c0-.52,0-1,0-1.55s0-.8,0-1.19-.07-1-.11-1.52-.07-.82-.11-1.22-.11-.94-.18-1.4-.11-.87-.18-1.3-.15-.85-.23-1.27-.16-.94-.26-1.4-.17-.77-.26-1.15-.22-1-.35-1.47-.21-.73-.31-1.1-.28-1-.43-1.48-.25-.74-.37-1.11-.31-1-.49-1.42-.3-.77-.46-1.16-.34-.89-.53-1.33-.35-.79-.53-1.18-.38-.85-.58-1.26-.4-.78-.59-1.16-.42-.83-.65-1.23-.42-.73-.63-1.09-.48-.84-.73-1.26-.43-.66-.64-1-.56-.87-.85-1.3-.43-.61-.65-.92-.63-.88-1-1.31l-.69-.87c-.34-.42-.67-.85-1-1.27l-.29-.35L571,391.15a54.8,54.8,0,0,0-41.94-19.23v76.17h23.63a28.13,28.13,0,0,1,28.09,28.09V596a53.51,53.51,0,0,1,2.1,89.44H553.41a19.8,19.8,0,0,0,15.12-19.22V480.9a19.81,19.81,0,0,0-19.81-19.81H251.65a19.81,19.81,0,0,0-19.81,19.81V666.21A19.8,19.8,0,0,0,247,685.44H217.45a53.51,53.51,0,0,1,2.1-89.43V476.18a28.12,28.12,0,0,1,28.09-28.09h23.63V371.83H268.9v.11a54.79,54.79,0,0,0-39.57,19.21L53.89,596.61l-.28.35c-.35.42-.69.84-1,1.27l-.68.87c-.33.43-.64.87-1,1.31s-.44.6-.65.92-.57.86-.85,1.3-.43.66-.64,1-.49.84-.73,1.26-.43.73-.63,1.09-.43.82-.64,1.23-.41.77-.6,1.16-.38.84-.57,1.26-.37.79-.53,1.18-.35.89-.53,1.33-.31.77-.46,1.16-.33.95-.49,1.42-.26.73-.37,1.11-.29,1-.43,1.48-.22.73-.31,1.1-.24,1-.35,1.47-.19.77-.27,1.15-.18.93-.26,1.4-.16.85-.23,1.27-.12.86-.18,1.3-.13.94-.18,1.4-.08.81-.11,1.22-.08,1-.11,1.52,0,.79,0,1.19,0,1,0,1.55c0,.16,0,.31,0,.48s0,.52,0,.77c0,.48,0,.95,0,1.43s0,1,.08,1.42.06.79.09,1.18c0,.55.11,1.1.17,1.65l.12.91c.08.61.18,1.23.28,1.84,0,.23.08.46.13.7.12.66.25,1.32.4,2,0,.19.09.38.13.56q.24,1,.51,2l.15.54c.19.66.38,1.32.6,2l.22.65c.21.61.42,1.21.65,1.81l.33.84c.21.52.42,1,.64,1.55s.33.73.5,1.09.38.83.59,1.25.46.9.69,1.34.33.64.51,1c.28.51.58,1,.88,1.52l.43.72c.33.54.68,1.07,1,1.6l.4.6c.37.53.74,1.06,1.13,1.58l.44.59c.37.49.76,1,1.16,1.47l.54.66c.37.44.74.87,1.13,1.3l.72.79c.34.37.69.73,1,1.09l.94.94c.31.3.61.59.93.89s.78.72,1.19,1.06l.5.45.32.26q.66.55,1.35,1.09l.79.62c.46.35.92.68,1.39,1l.84.6c.45.31.91.6,1.37.9l.93.6c.44.27.89.52,1.33.78s.68.4,1,.58.87.46,1.31.68.72.38,1.09.56.88.41,1.33.61l1.12.51,1.39.55,1.1.43c.49.18,1,.34,1.47.51s.71.25,1.06.36,1,.29,1.51.44l1,.28H0v31.64H800.38V685.45H718.69Z"/></svg>