<svg id="Layer_1" data-name="Layer 1" xmlns="http://www.w3.org/2000/svg" xmlns:xlink="http://www.w3.org/1999/xlink" viewBox="0 0 395.71 395.26"><defs><style>.cls-1{fill:none;}.cls-2{fill:url(#linear-gradient);}.cls-3{fill:url(#linear-gradient-2);}.cls-4{clip-path:url(#clip-path);}.cls-5{fill:#fff;}</style><linearGradient id="linear-gradient" x1="213.93" y1="-11.13" x2="214.49" y2="-10.53" gradientTransform="translate(-62826.74 3288.77) scale(293.9 292.1)" gradientUnits="userSpaceOnUse"><stop offset="0" stop-color="#3a82be"/><stop offset="0.99" stop-color="#386a94"/><stop offset="1" stop-color="#386a94"/></linearGradient><linearGradient id="linear-gradient-2" x1="213.97" y1="-11.09" x2="214.6" y2="-10.43" gradientTransform="translate(-62142.68 3442.61) scale(291.2 296.17)" gradientUnits="userSpaceOnUse"><stop offset="0" stop-color="#fdeb5f"/><stop offset="0.99" stop-color="#fdbb29"/><stop offset="1" stop-color="#fdbb29"/></linearGradient><clipPath id="clip-path"><rect class="cls-1" x="-13.45" y="-12.5" width="1200" height="700"/></clipPath></defs><title>2Artboard 1</title><path class="cls-2" d="M151,2.64c-39.32,7.15-46.43,21.44-46.43,50V88.39h92.9V99.12H68.8c-28.59,0-53.59,17.86-60.74,50-10.74,35.72-10.74,57.15,0,92.89,7.15,28.59,21.44,50,50,50H90.24V249.19c0-32.16,28.59-60.76,60.73-60.76h96.47c25,0,46.46-21.42,46.46-46.44V52.68c0-25-21.44-46.46-46.46-50Q220.67,0,196.55,0A367.9,367.9,0,0,0,151,2.68"/><path class="cls-3" d="M304.62,99.12V142c0,32.14-28.59,60.74-57.17,60.74H151c-25,0-46.44,21.44-46.44,46.46V338.5c0,25,21.42,42.88,46.44,50,28.59,7.14,57.18,10.71,96.47,0,21.45-7.15,46.46-21.44,46.46-50V302.77H197.44V292h142.9c28.58,0,39.32-17.86,50-50,7.16-28.59,7.16-57.18,0-92.89-7.14-28.58-21.44-50-50-50H304.62Z"/><g class="cls-4"><path class="cls-5" d="M126,45.5c0-10.73,7.15-17.87,17.88-17.87s17.86,7.18,17.86,17.87-7.15,17.89-17.86,17.89S126,56.24,126,45.5M233.18,345.67c0-10.73,7.13-17.88,17.84-17.88s17.88,7.15,17.88,17.88S261.74,363.5,251,363.5s-17.84-7.15-17.84-17.86"/></g></svg>